# xmcd
#
# Track frame offsets:
#	150
#	10537
#	24643
#	33485
#	43841
#	55565
#	66522
#	80398
#	94077
#	104525
#	124176
#	137166
#	157443
#	168050
#	183867
#	200861
#	221289
#	236241
#
# Disc length: 3286
#
# Revision: 4
# Processed by: cddbd v1.5.1PL0 Copyright (c) Steve Scherf et al.
# Submitted via: CDex 1.51
# Normalized: r3:TDELIM( - )
#
DISCID=fd0cd412
DTITLE=Ladies of Jazz - Most Famous Hits CD1
DYEAR=2002
DGENRE=Jazz
TTITLE0=Lena Horne - The Lady Is A Tramp
TTITLE1=Sarah Vaughn - The More I See
TTITLE2=Della Reese - All Of Me
TTITLE3=Ella Fitzgerald - How High The Moon
TTITLE4=Lena Horne - Night And Day
TTITLE5=Ella Fitzgerald - That Old Black Magic
TTITLE6=Pearl Bailey - Solid Gold Cadillac
TTITLE7=Ella Fitzgerald - Basin Street Blues
TTITLE8=Sarah Vaughn - You Stepped Out Of A Dream
TTITLE9=Chick Corea - Moment's Notice
TTITLE10=Lena Horne - Love Me Or Leave Me
TTITLE11=Ella Fitzgerald - I Want To Be Happy
TTITLE12=Lena Horne - My Blue Heaven
TTITLE13=Pearl Baily - Stealin' Apples
TTITLE14=Lena Horne - I Got It Bad
TTITLE15=Della Reese - Nobody Knows
TTITLE16=Ella Fitzgerald - Love And Kisses
TTITLE17=Lena Horne - Take Me
EXTD=YEAR: 2002
EXTT0=
EXTT1=
EXTT2=
EXTT3=
EXTT4=
EXTT5=
EXTT6=
EXTT7=
EXTT8=
EXTT9=
EXTT10=
EXTT11=
EXTT12=
EXTT13=
EXTT14=
EXTT15=
EXTT16=
EXTT17=
PLAYORDER=
